<svg width="21" height="23" viewBox="0 0 21 23" fill="none" xmlns="http://www.w3.org/2000/svg">
<path d="M8.01425 9.2147e-05C7.74668 -0.00353785 7.48881 0.100212 7.29832 0.288142C7.10781 0.476072 7.00058 0.732502 7.00058 1.00009H1.01425C0.653607 0.994992 0.318167 1.18447 0.136357 1.49596C-0.0454525 1.80746 -0.0454525 2.19272 0.136357 2.50421C0.318167 2.81571 0.653607 3.00518 1.01425 3.00008H19.0142C19.3749 3.00518 19.7103 2.8157 19.8921 2.50421C20.0739 2.19271 20.0739 1.80745 19.8921 1.49596C19.7103 1.18446 19.3749 0.994992 19.0142 1.00009H13.0279C13.0279 0.732502 12.9207 0.476062 12.7302 0.288142C12.5397 0.100212 12.2818 -0.00353785 12.0142 9.2147e-05H8.01425ZM1.01425 5.00009V21.0001C1.01425 22.1051 1.90925 23.0001 3.01425 23.0001H17.0142C18.1192 23.0001 19.0142 22.1051 19.0142 21.0001V5.00009H1.01425Z" fill="#B4B4B4"/>
</svg>
